<?xml version="1.0" standalone="no"?><svg xmlns="http://www.w3.org/2000/svg" viewBox="0 0 1440 320"><path fill="#71d1f7" fill-opacity="1" d="M0,32L34.3,42.7C68.6,53,137,75,206,85.3C274.3,96,343,96,411,80C480,64,549,32,617,21.3C685.7,11,754,21,823,26.7C891.4,32,960,32,1029,42.7C1097.1,53,1166,75,1234,80C1302.9,85,1371,75,1406,69.3L1440,64L1440,0L1405.7,0C1371.4,0,1303,0,1234,0C1165.7,0,1097,0,1029,0C960,0,891,0,823,0C754.3,0,686,0,617,0C548.6,0,480,0,411,0C342.9,0,274,0,206,0C137.1,0,69,0,34,0L0,0Z"></path></svg>